<svg width="44" height="63" viewBox="0 0 44 63" fill="none" xmlns="http://www.w3.org/2000/svg">
<g filter="url(#filter0_d_69_38)">
<path d="M18.62 49V25.816H24.38L33.128 38.092V25.816H39.896V49H34.1L25.388 36.76V49H18.62Z" fill="#F8F8F8"/>
<path d="M12.216 40.36C10.68 40.36 9.24 40.24 7.896 40C6.576 39.784 5.436 39.46 4.476 39.028V34.096C5.532 34.552 6.696 34.924 7.968 35.212C9.264 35.5 10.488 35.644 11.64 35.644C13.08 35.644 14.148 35.512 14.844 35.248C15.564 34.984 15.924 34.408 15.924 33.52C15.924 32.92 15.744 32.44 15.384 32.08C15.048 31.72 14.484 31.408 13.692 31.144C12.924 30.856 11.868 30.52 10.524 30.136C8.94 29.656 7.68 29.128 6.744 28.552C5.808 27.952 5.136 27.232 4.728 26.392C4.32 25.552 4.116 24.52 4.116 23.296C4.116 21.088 4.908 19.396 6.492 18.22C8.076 17.044 10.416 16.456 13.512 16.456C14.856 16.456 16.164 16.564 17.436 16.78C18.708 16.972 19.74 17.2 20.532 17.464V22.432C19.5 22.024 18.456 21.724 17.4 21.532C16.368 21.34 15.36 21.244 14.376 21.244C13.08 21.244 12.024 21.364 11.208 21.604C10.416 21.844 10.02 22.396 10.02 23.26C10.02 23.764 10.164 24.172 10.452 24.484C10.74 24.772 11.232 25.036 11.928 25.276C12.648 25.516 13.62 25.804 14.844 26.14C16.74 26.644 18.192 27.256 19.2 27.976C20.208 28.672 20.904 29.488 21.288 30.424C21.672 31.336 21.864 32.368 21.864 33.52C21.864 35.56 21.072 37.216 19.488 38.488C17.904 39.736 15.48 40.36 12.216 40.36Z" fill="#FFBF00"/>
</g>
<defs>
<filter id="filter0_d_69_38" x="0.116211" y="16.4561" width="43.7798" height="40.5439" filterUnits="userSpaceOnUse" color-interpolation-filters="sRGB">
<feFlood flood-opacity="0" result="BackgroundImageFix"/>
<feColorMatrix in="SourceAlpha" type="matrix" values="0 0 0 0 0 0 0 0 0 0 0 0 0 0 0 0 0 0 127 0" result="hardAlpha"/>
<feOffset dy="4"/>
<feGaussianBlur stdDeviation="2"/>
<feComposite in2="hardAlpha" operator="out"/>
<feColorMatrix type="matrix" values="0 0 0 0 0 0 0 0 0 0 0 0 0 0 0 0 0 0 0.25 0"/>
<feBlend mode="normal" in2="BackgroundImageFix" result="effect1_dropShadow_69_38"/>
<feBlend mode="normal" in="SourceGraphic" in2="effect1_dropShadow_69_38" result="shape"/>
</filter>
</defs>
</svg>
