<svg width="136" height="55" viewBox="0 0 136 55" fill="none" xmlns="http://www.w3.org/2000/svg">
<g filter="url(#filter0_i_63_38)">
<path d="M25.62 47V23.816H31.38L40.128 36.092V23.816H46.896V47H41.1L32.388 34.76V47H25.62ZM59.5199 47.36C57.5279 47.36 55.7639 47.036 54.2279 46.388C52.7159 45.716 51.5279 44.72 50.6639 43.4C49.8239 42.08 49.4039 40.448 49.4039 38.504C49.4039 35.792 50.1719 33.632 51.7079 32.024C53.2439 30.392 55.5359 29.576 58.5839 29.576C61.3679 29.576 63.5399 30.284 65.0999 31.7C66.6839 33.116 67.4759 35.048 67.4759 37.496V40.484H55.6319C55.9439 41.396 56.5559 42.044 57.4679 42.428C58.3799 42.812 59.6159 43.004 61.1759 43.004C62.1599 43.004 63.1439 42.92 64.1279 42.752C65.1359 42.56 65.9399 42.344 66.5399 42.104V46.172C64.8599 46.964 62.5199 47.36 59.5199 47.36ZM55.6319 36.812H61.6439V36.2C61.6439 35.528 61.4279 34.976 60.9959 34.544C60.5879 34.112 59.8559 33.896 58.7999 33.896C57.6239 33.896 56.7959 34.148 56.3159 34.652C55.8599 35.132 55.6319 35.852 55.6319 36.812ZM72.15 47L67.65 29.936H74.202L76.218 38.396L78.198 32.384V29.936H83.166L85.542 38.396L87.486 29.936H94.038L89.538 47H83.49L80.898 39.26L78.306 47H72.15ZM101.608 47.36C100.144 47.36 98.7641 47.252 97.4681 47.036C96.1961 46.844 95.1881 46.592 94.4441 46.28V41.42C95.2841 41.804 96.2801 42.104 97.4321 42.32C98.6081 42.536 99.6041 42.644 100.42 42.644C101.284 42.644 101.932 42.62 102.364 42.572C102.82 42.524 103.048 42.32 103.048 41.96C103.048 41.552 102.652 41.24 101.86 41.024C101.068 40.808 100.072 40.496 98.8721 40.088C97.3121 39.536 96.1481 38.888 95.3801 38.144C94.6121 37.4 94.2281 36.32 94.2281 34.904C94.2281 33.2 94.9001 31.892 96.2441 30.98C97.5881 30.044 99.7001 29.576 102.58 29.576C103.684 29.576 104.824 29.66 106 29.828C107.176 29.996 108.1 30.188 108.772 30.404V35.156C108.052 34.844 107.26 34.616 106.396 34.472C105.556 34.328 104.788 34.256 104.092 34.256C103.324 34.256 102.64 34.292 102.04 34.364C101.44 34.436 101.14 34.64 101.14 34.976C101.14 35.36 101.476 35.636 102.148 35.804C102.844 35.972 103.768 36.236 104.92 36.596C106.216 36.98 107.224 37.4 107.944 37.856C108.688 38.312 109.204 38.864 109.492 39.512C109.804 40.16 109.96 40.964 109.96 41.924C109.96 43.652 109.252 44.996 107.836 45.956C106.444 46.892 104.368 47.36 101.608 47.36ZM112.131 40.376L111.915 30.044V23.816H118.683V30.044L118.467 40.376H112.131ZM111.771 47V42.212H118.827V47H111.771Z" fill="#A9A9A9"/>
<path d="M24.216 33.36C22.68 33.36 21.24 33.24 19.896 33C18.576 32.784 17.436 32.46 16.476 32.028V27.096C17.532 27.552 18.696 27.924 19.968 28.212C21.264 28.5 22.488 28.644 23.64 28.644C25.08 28.644 26.148 28.512 26.844 28.248C27.564 27.984 27.924 27.408 27.924 26.52C27.924 25.92 27.744 25.44 27.384 25.08C27.048 24.72 26.484 24.408 25.692 24.144C24.924 23.856 23.868 23.52 22.524 23.136C20.94 22.656 19.68 22.128 18.744 21.552C17.808 20.952 17.136 20.232 16.728 19.392C16.32 18.552 16.116 17.52 16.116 16.296C16.116 14.088 16.908 12.396 18.492 11.22C20.076 10.044 22.416 9.456 25.512 9.456C26.856 9.456 28.164 9.564 29.436 9.78C30.708 9.972 31.74 10.2 32.532 10.464V15.432C31.5 15.024 30.456 14.724 29.4 14.532C28.368 14.34 27.36 14.244 26.376 14.244C25.08 14.244 24.024 14.364 23.208 14.604C22.416 14.844 22.02 15.396 22.02 16.26C22.02 16.764 22.164 17.172 22.452 17.484C22.74 17.772 23.232 18.036 23.928 18.276C24.648 18.516 25.62 18.804 26.844 19.14C28.74 19.644 30.192 20.256 31.2 20.976C32.208 21.672 32.904 22.488 33.288 23.424C33.672 24.336 33.864 25.368 33.864 26.52C33.864 28.56 33.072 30.216 31.488 31.488C29.904 32.736 27.48 33.36 24.216 33.36ZM43.2974 33.36C41.1854 33.36 39.6254 32.82 38.6174 31.74C37.6334 30.66 37.1414 29.172 37.1414 27.276V20.328H34.8374V15.936H37.1414V12.372L42.9374 10.824V15.936H47.0774L46.8254 20.328H42.9374V26.88C42.9374 27.696 43.1414 28.272 43.5494 28.608C43.9574 28.92 44.5694 29.076 45.3854 29.076C46.0814 29.076 46.7894 28.956 47.5094 28.716V32.64C46.3814 33.12 44.9774 33.36 43.2974 33.36ZM58.6343 33.36C55.3463 33.36 52.9223 32.604 51.3623 31.092C49.8023 29.556 49.0223 27.348 49.0223 24.468C49.0223 21.612 49.8023 19.416 51.3623 17.88C52.9463 16.344 55.3703 15.576 58.6343 15.576C61.9223 15.576 64.3463 16.344 65.9062 17.88C67.4903 19.416 68.2823 21.612 68.2823 24.468C68.2823 27.348 67.5023 29.556 65.9423 31.092C64.3823 32.604 61.9463 33.36 58.6343 33.36ZM58.6343 28.824C59.9783 28.824 60.9383 28.488 61.5143 27.816C62.0903 27.144 62.3783 26.028 62.3783 24.468C62.3783 22.908 62.0903 21.792 61.5143 21.12C60.9383 20.448 59.9783 20.112 58.6343 20.112C57.3143 20.112 56.3663 20.448 55.7903 21.12C55.2143 21.792 54.9263 22.908 54.9263 24.468C54.9263 26.028 55.2143 27.144 55.7903 27.816C56.3663 28.488 57.3143 28.824 58.6343 28.824ZM80.2227 33.36C77.1747 33.36 74.7867 32.616 73.0587 31.128C71.3547 29.64 70.5027 27.42 70.5027 24.468C70.5027 21.468 71.3907 19.236 73.1667 17.772C74.9667 16.308 77.3547 15.576 80.3307 15.576C81.5787 15.576 82.6587 15.672 83.5707 15.864C84.5067 16.032 85.4067 16.32 86.2707 16.728V20.832C84.9267 20.184 83.3547 19.86 81.5547 19.86C79.8747 19.86 78.5907 20.196 77.7027 20.868C76.8387 21.54 76.4067 22.74 76.4067 24.468C76.4067 26.076 76.8147 27.252 77.6307 27.996C78.4467 28.716 79.7427 29.076 81.5187 29.076C83.2707 29.076 84.8667 28.716 86.3067 27.996V32.28C85.4427 32.664 84.5067 32.94 83.4987 33.108C82.5147 33.276 81.4227 33.36 80.2227 33.36ZM89.2579 33V8.736H95.0539V21.408L100.634 15.936H107.222L100.382 23.028L107.618 33H101.462L96.7459 26.088L95.0539 27.744V33H89.2579Z" fill="#FFBF00"/>
</g>
<defs>
<filter id="filter0_i_63_38" x="16.1162" y="8.73608" width="102.711" height="40.1239" filterUnits="userSpaceOnUse" color-interpolation-filters="sRGB">
<feFlood flood-opacity="0" result="BackgroundImageFix"/>
<feBlend mode="normal" in="SourceGraphic" in2="BackgroundImageFix" result="shape"/>
<feColorMatrix in="SourceAlpha" type="matrix" values="0 0 0 0 0 0 0 0 0 0 0 0 0 0 0 0 0 0 127 0" result="hardAlpha"/>
<feOffset dy="2"/>
<feGaussianBlur stdDeviation="0.75"/>
<feComposite in2="hardAlpha" operator="arithmetic" k2="-1" k3="1"/>
<feColorMatrix type="matrix" values="0 0 0 0 0 0 0 0 0 0 0 0 0 0 0 0 0 0 0.25 0"/>
<feBlend mode="normal" in2="shape" result="effect1_innerShadow_63_38"/>
</filter>
</defs>
</svg>
