<svg width="196" height="35" viewBox="0 0 196 35" fill="none" xmlns="http://www.w3.org/2000/svg">
<g filter="url(#filter0_d_69_32)">
<path d="M98.62 26V2.816H104.38L113.128 15.092V2.816H119.896V26H114.1L105.388 13.76V26H98.62ZM132.52 26.36C130.528 26.36 128.764 26.036 127.228 25.388C125.716 24.716 124.528 23.72 123.664 22.4C122.824 21.08 122.404 19.448 122.404 17.504C122.404 14.792 123.172 12.632 124.708 11.024C126.244 9.392 128.536 8.576 131.584 8.576C134.368 8.576 136.54 9.284 138.1 10.7C139.684 12.116 140.476 14.048 140.476 16.496V19.484H128.632C128.944 20.396 129.556 21.044 130.468 21.428C131.38 21.812 132.616 22.004 134.176 22.004C135.16 22.004 136.144 21.92 137.128 21.752C138.136 21.56 138.94 21.344 139.54 21.104V25.172C137.86 25.964 135.52 26.36 132.52 26.36ZM128.632 15.812H134.644V15.2C134.644 14.528 134.428 13.976 133.996 13.544C133.588 13.112 132.856 12.896 131.8 12.896C130.624 12.896 129.796 13.148 129.316 13.652C128.86 14.132 128.632 14.852 128.632 15.812ZM145.15 26L140.65 8.936H147.202L149.218 17.396L151.198 11.384V8.936H156.166L158.542 17.396L160.486 8.936H167.038L162.538 26H156.49L153.898 18.26L151.306 26H145.15ZM174.608 26.36C173.144 26.36 171.764 26.252 170.468 26.036C169.196 25.844 168.188 25.592 167.444 25.28V20.42C168.284 20.804 169.28 21.104 170.432 21.32C171.608 21.536 172.604 21.644 173.42 21.644C174.284 21.644 174.932 21.62 175.364 21.572C175.82 21.524 176.048 21.32 176.048 20.96C176.048 20.552 175.652 20.24 174.86 20.024C174.068 19.808 173.072 19.496 171.872 19.088C170.312 18.536 169.148 17.888 168.38 17.144C167.612 16.4 167.228 15.32 167.228 13.904C167.228 12.2 167.9 10.892 169.244 9.98C170.588 9.044 172.7 8.576 175.58 8.576C176.684 8.576 177.824 8.66 179 8.828C180.176 8.996 181.1 9.188 181.772 9.404V14.156C181.052 13.844 180.26 13.616 179.396 13.472C178.556 13.328 177.788 13.256 177.092 13.256C176.324 13.256 175.64 13.292 175.04 13.364C174.44 13.436 174.14 13.64 174.14 13.976C174.14 14.36 174.476 14.636 175.148 14.804C175.844 14.972 176.768 15.236 177.92 15.596C179.216 15.98 180.224 16.4 180.944 16.856C181.688 17.312 182.204 17.864 182.492 18.512C182.804 19.16 182.96 19.964 182.96 20.924C182.96 22.652 182.252 23.996 180.836 24.956C179.444 25.892 177.368 26.36 174.608 26.36ZM185.131 19.376L184.915 9.044V2.816H191.683V9.044L191.467 19.376H185.131ZM184.771 26V21.212H191.827V26H184.771Z" fill="#F8F8F8"/>
<path d="M12.216 26.36C10.68 26.36 9.24 26.24 7.896 26C6.576 25.784 5.436 25.46 4.476 25.028V20.096C5.532 20.552 6.696 20.924 7.968 21.212C9.264 21.5 10.488 21.644 11.64 21.644C13.08 21.644 14.148 21.512 14.844 21.248C15.564 20.984 15.924 20.408 15.924 19.52C15.924 18.92 15.744 18.44 15.384 18.08C15.048 17.72 14.484 17.408 13.692 17.144C12.924 16.856 11.868 16.52 10.524 16.136C8.94 15.656 7.68 15.128 6.744 14.552C5.808 13.952 5.136 13.232 4.728 12.392C4.32 11.552 4.116 10.52 4.116 9.296C4.116 7.088 4.908 5.396 6.492 4.22C8.076 3.044 10.416 2.456 13.512 2.456C14.856 2.456 16.164 2.564 17.436 2.78C18.708 2.972 19.74 3.2 20.532 3.464V8.432C19.5 8.024 18.456 7.724 17.4 7.532C16.368 7.34 15.36 7.244 14.376 7.244C13.08 7.244 12.024 7.364 11.208 7.604C10.416 7.844 10.02 8.396 10.02 9.26C10.02 9.764 10.164 10.172 10.452 10.484C10.74 10.772 11.232 11.036 11.928 11.276C12.648 11.516 13.62 11.804 14.844 12.14C16.74 12.644 18.192 13.256 19.2 13.976C20.208 14.672 20.904 15.488 21.288 16.424C21.672 17.336 21.864 18.368 21.864 19.52C21.864 21.56 21.072 23.216 19.488 24.488C17.904 25.736 15.48 26.36 12.216 26.36ZM31.2974 26.36C29.1854 26.36 27.6254 25.82 26.6174 24.74C25.6334 23.66 25.1414 22.172 25.1414 20.276V13.328H22.8374V8.936H25.1414V5.372L30.9374 3.824V8.936H35.0774L34.8254 13.328H30.9374V19.88C30.9374 20.696 31.1414 21.272 31.5494 21.608C31.9574 21.92 32.5694 22.076 33.3854 22.076C34.0814 22.076 34.7894 21.956 35.5094 21.716V25.64C34.3814 26.12 32.9774 26.36 31.2974 26.36ZM46.6343 26.36C43.3463 26.36 40.9223 25.604 39.3623 24.092C37.8023 22.556 37.0223 20.348 37.0223 17.468C37.0223 14.612 37.8023 12.416 39.3623 10.88C40.9463 9.344 43.3703 8.576 46.6343 8.576C49.9223 8.576 52.3463 9.344 53.9062 10.88C55.4903 12.416 56.2823 14.612 56.2823 17.468C56.2823 20.348 55.5023 22.556 53.9423 24.092C52.3823 25.604 49.9463 26.36 46.6343 26.36ZM46.6343 21.824C47.9783 21.824 48.9383 21.488 49.5143 20.816C50.0903 20.144 50.3783 19.028 50.3783 17.468C50.3783 15.908 50.0903 14.792 49.5143 14.12C48.9383 13.448 47.9783 13.112 46.6343 13.112C45.3143 13.112 44.3663 13.448 43.7903 14.12C43.2143 14.792 42.9263 15.908 42.9263 17.468C42.9263 19.028 43.2143 20.144 43.7903 20.816C44.3663 21.488 45.3143 21.824 46.6343 21.824ZM68.2227 26.36C65.1747 26.36 62.7867 25.616 61.0587 24.128C59.3547 22.64 58.5027 20.42 58.5027 17.468C58.5027 14.468 59.3907 12.236 61.1667 10.772C62.9667 9.308 65.3547 8.576 68.3307 8.576C69.5787 8.576 70.6587 8.672 71.5707 8.864C72.5067 9.032 73.4067 9.32 74.2707 9.728V13.832C72.9267 13.184 71.3547 12.86 69.5547 12.86C67.8747 12.86 66.5907 13.196 65.7027 13.868C64.8387 14.54 64.4067 15.74 64.4067 17.468C64.4067 19.076 64.8147 20.252 65.6307 20.996C66.4467 21.716 67.7427 22.076 69.5187 22.076C71.2707 22.076 72.8667 21.716 74.3067 20.996V25.28C73.4427 25.664 72.5067 25.94 71.4987 26.108C70.5147 26.276 69.4227 26.36 68.2227 26.36ZM77.2579 26V1.736H83.0539V14.408L88.6339 8.936H95.2219L88.3819 16.028L95.6179 26H89.4619L84.7459 19.088L83.0539 20.744V26H77.2579Z" fill="#FFBF00"/>
</g>
<defs>
<filter id="filter0_d_69_32" x="0.116211" y="1.73608" width="195.711" height="32.624" filterUnits="userSpaceOnUse" color-interpolation-filters="sRGB">
<feFlood flood-opacity="0" result="BackgroundImageFix"/>
<feColorMatrix in="SourceAlpha" type="matrix" values="0 0 0 0 0 0 0 0 0 0 0 0 0 0 0 0 0 0 127 0" result="hardAlpha"/>
<feOffset dy="4"/>
<feGaussianBlur stdDeviation="2"/>
<feComposite in2="hardAlpha" operator="out"/>
<feColorMatrix type="matrix" values="0 0 0 0 0 0 0 0 0 0 0 0 0 0 0 0 0 0 0.25 0"/>
<feBlend mode="normal" in2="BackgroundImageFix" result="effect1_dropShadow_69_32"/>
<feBlend mode="normal" in="SourceGraphic" in2="effect1_dropShadow_69_32" result="shape"/>
</filter>
</defs>
</svg>
